<mxfile host="app.diagrams.net" modified="2022-11-24T00:36:02.808Z" agent="5.0 (Windows NT 10.0; Win64; x64) AppleWebKit/537.36 (KHTML, like Gecko) Chrome/107.0.0.0 Safari/537.36" etag="5Bhd8hXlhfD6bShtuNmr" version="20.5.1" type="github">
  <diagram id="C5RBs43oDa-KdzZeNtuy" name="Page-1">
    <mxGraphModel dx="1102" dy="614" grid="1" gridSize="10" guides="1" tooltips="1" connect="1" arrows="1" fold="1" page="1" pageScale="1" pageWidth="827" pageHeight="1169" math="0" shadow="0">
      <root>
        <mxCell id="WIyWlLk6GJQsqaUBKTNV-0" />
        <mxCell id="WIyWlLk6GJQsqaUBKTNV-1" parent="WIyWlLk6GJQsqaUBKTNV-0" />
        <mxCell id="p8Cv-tQ2KAmy8846ZhRr-6" value="&lt;p style=&quot;margin:0px;margin-top:4px;text-align:center;&quot;&gt;&lt;i&gt;&lt;b&gt;Conta&lt;/b&gt;&lt;/i&gt;&lt;/p&gt;&lt;hr size=&quot;1&quot;&gt;&lt;p style=&quot;margin:0px;margin-left:4px;&quot;&gt;- agencia_nome = str&lt;br&gt;- agencia_numero = int&lt;/p&gt;&lt;hr size=&quot;1&quot;&gt;&lt;p style=&quot;margin:0px;margin-left:4px;&quot;&gt;+ def get agencia_nome()&lt;br&gt;+ def get agencia_numero()&lt;/p&gt;&lt;p style=&quot;margin:0px;margin-left:4px;&quot;&gt;&lt;br&gt;&lt;/p&gt;&lt;p style=&quot;margin:0px;margin-left:4px;&quot;&gt;+ def __str__()&lt;/p&gt;&lt;p style=&quot;margin:0px;margin-left:4px;&quot;&gt;&amp;nbsp; &amp;nbsp;return agencia_nome, agencia_numero&lt;/p&gt;" style="verticalAlign=top;align=left;overflow=fill;fontSize=12;fontFamily=Helvetica;html=1;" vertex="1" parent="WIyWlLk6GJQsqaUBKTNV-1">
          <mxGeometry x="310" y="120" width="230" height="150" as="geometry" />
        </mxCell>
        <mxCell id="p8Cv-tQ2KAmy8846ZhRr-7" value="&lt;p style=&quot;margin:0px;margin-top:4px;text-align:center;&quot;&gt;&lt;i&gt;&lt;b&gt;PessoaFisica&lt;/b&gt;&lt;/i&gt;&lt;/p&gt;&lt;hr size=&quot;1&quot;&gt;&lt;p style=&quot;margin:0px;margin-left:4px;&quot;&gt;- titular = str&lt;/p&gt;&lt;p style=&quot;margin:0px;margin-left:4px;&quot;&gt;- cpf = str&lt;br&gt;- saldo_inicial = float&lt;/p&gt;&lt;hr size=&quot;1&quot;&gt;&lt;p style=&quot;margin:0px;margin-left:4px;&quot;&gt;+ def get titular()&lt;br&gt;+ def get cpf()&lt;/p&gt;&lt;p style=&quot;margin:0px;margin-left:4px;&quot;&gt;+ def get saldo_inicial()&lt;/p&gt;&lt;p style=&quot;margin:0px;margin-left:4px;&quot;&gt;&lt;br&gt;&lt;/p&gt;&lt;p style=&quot;margin:0px;margin-left:4px;&quot;&gt;+ def __str__()&lt;/p&gt;&lt;p style=&quot;margin:0px;margin-left:4px;&quot;&gt;&amp;nbsp; &amp;nbsp;return titular, cpf, saldo_inicial&lt;/p&gt;" style="verticalAlign=top;align=left;overflow=fill;fontSize=12;fontFamily=Helvetica;html=1;" vertex="1" parent="WIyWlLk6GJQsqaUBKTNV-1">
          <mxGeometry x="30" y="300" width="230" height="180" as="geometry" />
        </mxCell>
        <mxCell id="p8Cv-tQ2KAmy8846ZhRr-8" value="&lt;p style=&quot;margin:0px;margin-top:4px;text-align:center;&quot;&gt;&lt;i&gt;&lt;b&gt;PessoaJuridica&lt;/b&gt;&lt;/i&gt;&lt;/p&gt;&lt;hr size=&quot;1&quot;&gt;&lt;p style=&quot;margin: 0px 0px 0px 4px;&quot;&gt;- titular = str&lt;/p&gt;&lt;p style=&quot;margin: 0px 0px 0px 4px;&quot;&gt;- cpf = str&lt;br&gt;- saldo_inicial = float&lt;/p&gt;&lt;hr size=&quot;1&quot;&gt;&lt;p style=&quot;margin: 0px 0px 0px 4px;&quot;&gt;+ def get titular()&lt;br&gt;+ def get cnpj()&lt;/p&gt;&lt;p style=&quot;margin: 0px 0px 0px 4px;&quot;&gt;+ def get saldo_inicial()&lt;/p&gt;&lt;p style=&quot;margin: 0px 0px 0px 4px;&quot;&gt;&lt;br&gt;&lt;/p&gt;&lt;p style=&quot;margin: 0px 0px 0px 4px;&quot;&gt;+ def __str__()&lt;/p&gt;&lt;p style=&quot;margin: 0px 0px 0px 4px;&quot;&gt;&amp;nbsp; &amp;nbsp;return titular, cnpj, saldo_inicial&lt;/p&gt;" style="verticalAlign=top;align=left;overflow=fill;fontSize=12;fontFamily=Helvetica;html=1;" vertex="1" parent="WIyWlLk6GJQsqaUBKTNV-1">
          <mxGeometry x="590" y="310" width="230" height="180" as="geometry" />
        </mxCell>
        <mxCell id="p8Cv-tQ2KAmy8846ZhRr-11" value="&lt;p style=&quot;margin:0px;margin-top:4px;text-align:center;text-decoration:underline;&quot;&gt;&lt;b&gt;Físico&lt;/b&gt;&lt;/p&gt;&lt;hr&gt;&lt;p style=&quot;margin:0px;margin-left:8px;&quot;&gt;+ import PessoaFisica&lt;/p&gt;&lt;p style=&quot;margin:0px;margin-left:8px;&quot;&gt;+ def create_psf()&lt;/p&gt;&lt;p style=&quot;margin:0px;margin-left:8px;&quot;&gt;+ def read_psf()&lt;/p&gt;&lt;p style=&quot;margin:0px;margin-left:8px;&quot;&gt;+ def update_psf()&lt;/p&gt;&lt;p style=&quot;margin:0px;margin-left:8px;&quot;&gt;+ def delete_psf()&lt;/p&gt;&lt;p style=&quot;margin:0px;margin-left:8px;&quot;&gt;&lt;br&gt;&lt;/p&gt;&lt;p style=&quot;margin:0px;margin-left:8px;&quot;&gt;+ def depositar_psf()&lt;/p&gt;&lt;p style=&quot;margin:0px;margin-left:8px;&quot;&gt;+ def sacar_psf()&lt;/p&gt;&lt;p style=&quot;margin:0px;margin-left:8px;&quot;&gt;+ def transferir_psf()&lt;/p&gt;&lt;p style=&quot;margin:0px;margin-left:8px;&quot;&gt;&lt;br&gt;&lt;/p&gt;" style="verticalAlign=top;align=left;overflow=fill;fontSize=12;fontFamily=Helvetica;html=1;" vertex="1" parent="WIyWlLk6GJQsqaUBKTNV-1">
          <mxGeometry x="30" y="550" width="230" height="170" as="geometry" />
        </mxCell>
        <mxCell id="p8Cv-tQ2KAmy8846ZhRr-12" value="&lt;p style=&quot;margin:0px;margin-top:4px;text-align:center;text-decoration:underline;&quot;&gt;&lt;b&gt;Jurídico&lt;/b&gt;&lt;/p&gt;&lt;hr&gt;&lt;p style=&quot;margin:0px;margin-left:8px;&quot;&gt;+ import PessoaJuridica&lt;/p&gt;&lt;p style=&quot;margin:0px;margin-left:8px;&quot;&gt;+ def create_pj()&lt;/p&gt;&lt;p style=&quot;margin:0px;margin-left:8px;&quot;&gt;+ def read_pj()&lt;/p&gt;&lt;p style=&quot;margin:0px;margin-left:8px;&quot;&gt;+ def update_pj()&lt;/p&gt;&lt;p style=&quot;margin:0px;margin-left:8px;&quot;&gt;+ def delete_pj()&lt;/p&gt;&lt;p style=&quot;margin:0px;margin-left:8px;&quot;&gt;&lt;br&gt;&lt;/p&gt;&lt;p style=&quot;margin:0px;margin-left:8px;&quot;&gt;+ def depositar_pj()&lt;/p&gt;&lt;p style=&quot;margin:0px;margin-left:8px;&quot;&gt;+ def sacar_pj()&lt;/p&gt;&lt;p style=&quot;margin:0px;margin-left:8px;&quot;&gt;+ def transferir_pj()&lt;/p&gt;&lt;p style=&quot;margin:0px;margin-left:8px;&quot;&gt;&lt;br&gt;&lt;/p&gt;" style="verticalAlign=top;align=left;overflow=fill;fontSize=12;fontFamily=Helvetica;html=1;" vertex="1" parent="WIyWlLk6GJQsqaUBKTNV-1">
          <mxGeometry x="590" y="550" width="230" height="170" as="geometry" />
        </mxCell>
        <mxCell id="p8Cv-tQ2KAmy8846ZhRr-13" value="&lt;p style=&quot;margin:0px;margin-top:4px;text-align:center;&quot;&gt;&lt;b&gt;Main&lt;/b&gt;&lt;/p&gt;&lt;hr size=&quot;1&quot;&gt;&lt;p style=&quot;margin:0px;margin-left:4px;&quot;&gt;+ import PessoaFisica&lt;br&gt;+ import PessoaJuridica&lt;/p&gt;&lt;hr size=&quot;1&quot;&gt;&lt;p style=&quot;margin:0px;margin-left:4px;&quot;&gt;&lt;span style=&quot;background-color: initial;&quot;&gt;+ def menu()&lt;/span&gt;&lt;br&gt;&lt;/p&gt;&lt;p style=&quot;margin:0px;margin-left:4px;&quot;&gt;&lt;span style=&quot;background-color: initial;&quot;&gt;&amp;nbsp; &amp;nbsp;criar conta&lt;/span&gt;&lt;br&gt;&lt;/p&gt;&lt;p style=&quot;margin:0px;margin-left:4px;&quot;&gt;&amp;nbsp; &amp;nbsp;listar conta&lt;/p&gt;&lt;p style=&quot;margin:0px;margin-left:4px;&quot;&gt;&amp;nbsp; &amp;nbsp;alterar conta&lt;/p&gt;&lt;p style=&quot;margin:0px;margin-left:4px;&quot;&gt;&amp;nbsp; &amp;nbsp;deletar conta&lt;/p&gt;&lt;p style=&quot;margin:0px;margin-left:4px;&quot;&gt;&amp;nbsp; &amp;nbsp;depositar saldo&lt;/p&gt;&lt;p style=&quot;margin:0px;margin-left:4px;&quot;&gt;&amp;nbsp; &amp;nbsp;sacar saldo&lt;/p&gt;&lt;p style=&quot;margin:0px;margin-left:4px;&quot;&gt;&amp;nbsp; &amp;nbsp;transferir saldo&lt;/p&gt;&lt;p style=&quot;margin:0px;margin-left:4px;&quot;&gt;&lt;br&gt;&lt;/p&gt;&lt;p style=&quot;margin: 0px 0px 0px 4px;&quot;&gt;&lt;br&gt;&lt;/p&gt;" style="verticalAlign=top;align=left;overflow=fill;fontSize=12;fontFamily=Helvetica;html=1;" vertex="1" parent="WIyWlLk6GJQsqaUBKTNV-1">
          <mxGeometry x="310" y="750" width="230" height="460" as="geometry" />
        </mxCell>
        <mxCell id="p8Cv-tQ2KAmy8846ZhRr-24" value="&lt;p style=&quot;margin:0px;margin-top:4px;text-align:center;text-decoration:underline;&quot;&gt;&lt;b&gt;Arquivo Dados PF&lt;/b&gt;&lt;/p&gt;&lt;hr&gt;&lt;p style=&quot;margin:0px;margin-left:8px;&quot;&gt;+ pessoafisica.txt&lt;/p&gt;" style="verticalAlign=top;align=left;overflow=fill;fontSize=12;fontFamily=Helvetica;html=1;" vertex="1" parent="WIyWlLk6GJQsqaUBKTNV-1">
          <mxGeometry x="80" y="1063" width="188" height="60" as="geometry" />
        </mxCell>
        <mxCell id="p8Cv-tQ2KAmy8846ZhRr-25" value="&lt;p style=&quot;margin:0px;margin-top:4px;text-align:center;text-decoration:underline;&quot;&gt;&lt;b&gt;Arquivo Dados PJ&lt;/b&gt;&lt;/p&gt;&lt;hr&gt;&lt;p style=&quot;margin:0px;margin-left:8px;&quot;&gt;+ pessoajuridica.txt&lt;/p&gt;" style="verticalAlign=top;align=left;overflow=fill;fontSize=12;fontFamily=Helvetica;html=1;" vertex="1" parent="WIyWlLk6GJQsqaUBKTNV-1">
          <mxGeometry x="620" y="1063" width="200" height="60" as="geometry" />
        </mxCell>
        <mxCell id="p8Cv-tQ2KAmy8846ZhRr-26" value="&lt;p style=&quot;text-align: left; margin: 0px 0px 0px 4px;&quot;&gt;+ import create_psf()&lt;br&gt;+ import read_psf()&lt;/p&gt;&lt;p style=&quot;text-align: left; margin: 0px 0px 0px 4px;&quot;&gt;+ import update_psf()&lt;/p&gt;&lt;p style=&quot;text-align: left; margin: 0px 0px 0px 4px;&quot;&gt;+ import delete_psf()&lt;/p&gt;&lt;p style=&quot;text-align: left; margin: 0px 0px 0px 4px;&quot;&gt;+ import depositar_psf()&lt;/p&gt;&lt;p style=&quot;text-align: left; margin: 0px 0px 0px 4px;&quot;&gt;+ import sacar_psf()&lt;/p&gt;&lt;p style=&quot;text-align: left; margin: 0px 0px 0px 4px;&quot;&gt;+ import transferir_psf()&lt;/p&gt;" style="html=1;" vertex="1" parent="WIyWlLk6GJQsqaUBKTNV-1">
          <mxGeometry x="330" y="970" width="150" height="100" as="geometry" />
        </mxCell>
        <mxCell id="p8Cv-tQ2KAmy8846ZhRr-27" value="&lt;p style=&quot;text-align: left; margin: 0px 0px 0px 4px;&quot;&gt;+ import create_pj()&lt;br&gt;+ import read_pj()&lt;/p&gt;&lt;p style=&quot;text-align: left; margin: 0px 0px 0px 4px;&quot;&gt;+ import update_pj()&lt;/p&gt;&lt;p style=&quot;text-align: left; margin: 0px 0px 0px 4px;&quot;&gt;+ import delete_pj()&lt;/p&gt;&lt;p style=&quot;text-align: left; margin: 0px 0px 0px 4px;&quot;&gt;+ import depositar_pj()&lt;/p&gt;&lt;p style=&quot;text-align: left; margin: 0px 0px 0px 4px;&quot;&gt;+ import sacar_pj()&lt;/p&gt;&lt;p style=&quot;text-align: left; margin: 0px 0px 0px 4px;&quot;&gt;+ import transferir_pj()&lt;/p&gt;" style="html=1;" vertex="1" parent="WIyWlLk6GJQsqaUBKTNV-1">
          <mxGeometry x="370" y="1090" width="150" height="100" as="geometry" />
        </mxCell>
        <mxCell id="p8Cv-tQ2KAmy8846ZhRr-30" value="&lt;p style=&quot;margin:0px;margin-top:4px;text-align:center;text-decoration:underline;&quot;&gt;&lt;b&gt;Start&lt;/b&gt;&lt;/p&gt;&lt;hr&gt;&lt;p style=&quot;margin:0px;margin-left:8px;&quot;&gt;+ import menu()&lt;/p&gt;" style="verticalAlign=top;align=left;overflow=fill;fontSize=12;fontFamily=Helvetica;html=1;" vertex="1" parent="WIyWlLk6GJQsqaUBKTNV-1">
          <mxGeometry x="330" y="1255" width="190" height="60" as="geometry" />
        </mxCell>
        <mxCell id="p8Cv-tQ2KAmy8846ZhRr-33" value="" style="edgeStyle=entityRelationEdgeStyle;fontSize=12;html=1;endArrow=ERmany;rounded=0;entryX=1;entryY=0.556;entryDx=0;entryDy=0;exitX=0;exitY=0.5;exitDx=0;exitDy=0;entryPerimeter=0;" edge="1" parent="WIyWlLk6GJQsqaUBKTNV-1" source="p8Cv-tQ2KAmy8846ZhRr-6" target="p8Cv-tQ2KAmy8846ZhRr-7">
          <mxGeometry width="100" height="100" relative="1" as="geometry">
            <mxPoint x="210" y="200" as="sourcePoint" />
            <mxPoint x="460" y="80" as="targetPoint" />
          </mxGeometry>
        </mxCell>
        <mxCell id="p8Cv-tQ2KAmy8846ZhRr-34" value="" style="edgeStyle=entityRelationEdgeStyle;fontSize=12;html=1;endArrow=ERmany;rounded=0;" edge="1" parent="WIyWlLk6GJQsqaUBKTNV-1" target="p8Cv-tQ2KAmy8846ZhRr-8">
          <mxGeometry width="100" height="100" relative="1" as="geometry">
            <mxPoint x="540" y="202" as="sourcePoint" />
            <mxPoint x="460" y="80" as="targetPoint" />
          </mxGeometry>
        </mxCell>
        <mxCell id="p8Cv-tQ2KAmy8846ZhRr-39" value="" style="endArrow=none;html=1;rounded=0;entryX=0.5;entryY=1;entryDx=0;entryDy=0;" edge="1" parent="WIyWlLk6GJQsqaUBKTNV-1" source="p8Cv-tQ2KAmy8846ZhRr-11" target="p8Cv-tQ2KAmy8846ZhRr-7">
          <mxGeometry relative="1" as="geometry">
            <mxPoint x="330" y="630" as="sourcePoint" />
            <mxPoint x="490" y="630" as="targetPoint" />
          </mxGeometry>
        </mxCell>
        <mxCell id="p8Cv-tQ2KAmy8846ZhRr-40" value="" style="endArrow=none;html=1;rounded=0;entryX=0.791;entryY=0;entryDx=0;entryDy=0;entryPerimeter=0;exitX=0;exitY=0.75;exitDx=0;exitDy=0;" edge="1" parent="WIyWlLk6GJQsqaUBKTNV-1" source="p8Cv-tQ2KAmy8846ZhRr-8" target="p8Cv-tQ2KAmy8846ZhRr-13">
          <mxGeometry relative="1" as="geometry">
            <mxPoint x="590" y="460" as="sourcePoint" />
            <mxPoint x="490" y="630" as="targetPoint" />
            <Array as="points">
              <mxPoint x="490" y="445" />
            </Array>
          </mxGeometry>
        </mxCell>
        <mxCell id="p8Cv-tQ2KAmy8846ZhRr-42" value="" style="endArrow=none;html=1;rounded=0;entryX=0.25;entryY=0;entryDx=0;entryDy=0;" edge="1" parent="WIyWlLk6GJQsqaUBKTNV-1" target="p8Cv-tQ2KAmy8846ZhRr-13">
          <mxGeometry relative="1" as="geometry">
            <mxPoint x="260" y="460" as="sourcePoint" />
            <mxPoint x="490" y="630" as="targetPoint" />
            <Array as="points">
              <mxPoint x="368" y="460" />
            </Array>
          </mxGeometry>
        </mxCell>
        <mxCell id="p8Cv-tQ2KAmy8846ZhRr-44" value="" style="endArrow=none;html=1;rounded=0;exitX=-0.004;exitY=0.385;exitDx=0;exitDy=0;exitPerimeter=0;entryX=0.461;entryY=1.007;entryDx=0;entryDy=0;entryPerimeter=0;" edge="1" parent="WIyWlLk6GJQsqaUBKTNV-1" source="p8Cv-tQ2KAmy8846ZhRr-13" target="p8Cv-tQ2KAmy8846ZhRr-11">
          <mxGeometry width="50" height="50" relative="1" as="geometry">
            <mxPoint x="100" y="750" as="sourcePoint" />
            <mxPoint x="150" y="700" as="targetPoint" />
            <Array as="points">
              <mxPoint x="136" y="927" />
            </Array>
          </mxGeometry>
        </mxCell>
        <mxCell id="p8Cv-tQ2KAmy8846ZhRr-46" value="" style="endArrow=none;html=1;rounded=0;entryX=0.5;entryY=1;entryDx=0;entryDy=0;" edge="1" parent="WIyWlLk6GJQsqaUBKTNV-1" target="p8Cv-tQ2KAmy8846ZhRr-12">
          <mxGeometry width="50" height="50" relative="1" as="geometry">
            <mxPoint x="540" y="930" as="sourcePoint" />
            <mxPoint x="440" y="800" as="targetPoint" />
            <Array as="points">
              <mxPoint x="705" y="930" />
            </Array>
          </mxGeometry>
        </mxCell>
        <mxCell id="p8Cv-tQ2KAmy8846ZhRr-47" value="" style="endArrow=none;html=1;rounded=0;exitX=0.5;exitY=0;exitDx=0;exitDy=0;entryX=0;entryY=0.5;entryDx=0;entryDy=0;" edge="1" parent="WIyWlLk6GJQsqaUBKTNV-1" source="p8Cv-tQ2KAmy8846ZhRr-24" target="p8Cv-tQ2KAmy8846ZhRr-13">
          <mxGeometry width="50" height="50" relative="1" as="geometry">
            <mxPoint x="170" y="1060" as="sourcePoint" />
            <mxPoint x="310" y="1020" as="targetPoint" />
            <Array as="points">
              <mxPoint x="174" y="980" />
            </Array>
          </mxGeometry>
        </mxCell>
        <mxCell id="p8Cv-tQ2KAmy8846ZhRr-48" value="" style="endArrow=none;html=1;rounded=0;exitX=0.5;exitY=1;exitDx=0;exitDy=0;entryX=0.5;entryY=0;entryDx=0;entryDy=0;" edge="1" parent="WIyWlLk6GJQsqaUBKTNV-1" source="p8Cv-tQ2KAmy8846ZhRr-13" target="p8Cv-tQ2KAmy8846ZhRr-30">
          <mxGeometry width="50" height="50" relative="1" as="geometry">
            <mxPoint x="430" y="1210" as="sourcePoint" />
            <mxPoint x="418" y="1257" as="targetPoint" />
          </mxGeometry>
        </mxCell>
        <mxCell id="p8Cv-tQ2KAmy8846ZhRr-49" value="" style="endArrow=none;html=1;rounded=0;exitX=1;exitY=0.5;exitDx=0;exitDy=0;entryX=0.5;entryY=0;entryDx=0;entryDy=0;" edge="1" parent="WIyWlLk6GJQsqaUBKTNV-1" source="p8Cv-tQ2KAmy8846ZhRr-13" target="p8Cv-tQ2KAmy8846ZhRr-25">
          <mxGeometry width="50" height="50" relative="1" as="geometry">
            <mxPoint x="560" y="1073" as="sourcePoint" />
            <mxPoint x="710" y="1060" as="targetPoint" />
            <Array as="points">
              <mxPoint x="720" y="980" />
            </Array>
          </mxGeometry>
        </mxCell>
      </root>
    </mxGraphModel>
  </diagram>
</mxfile>
